# This file uses centimeters as units for non-parametric coordinates.

mtllib fridge.mtl
g default
v 0.403378 -0.031390 -0.563688
v 0.403378 -0.031390 0.563689
v -0.403378 -0.031390 0.563688
v -0.403378 -0.031390 -0.563689
v 0.403378 2.181370 -0.563688
v 0.403378 2.181370 0.563689
v -0.403378 2.181370 0.563688
v -0.403378 2.181370 -0.563689
v 0.360893 -0.031390 -0.563688
v 0.360893 -0.031390 0.539683
v 0.360894 2.168529 -0.563688
v 0.360893 2.168529 0.538615
v 0.341512 -0.031390 -0.563688
v 0.341512 -0.031390 0.539683
v 0.341512 2.168529 -0.563688
v 0.341511 2.168529 0.538615
v 0.319173 -0.031390 -0.563688
v 0.319173 -0.031390 0.563689
v 0.319173 2.181370 -0.563688
v 0.319172 2.181370 0.562653
v 0.439737 -0.031390 0.372902
v -0.403378 -0.031390 0.372901
v 0.429584 2.181370 0.372902
v -0.403378 2.181370 0.372901
v 0.360893 -0.031390 0.352959
v 0.360893 2.168529 0.352071
v 0.341512 -0.031390 0.352959
v 0.341511 2.168529 0.352071
v 0.319173 -0.031390 0.372902
v 0.319172 2.181370 0.372041
v -0.403378 -0.031390 0.104488
v -0.403378 2.181370 0.104489
v 0.360893 -0.031390 0.090261
v 0.341512 -0.031390 0.090261
v 0.319173 -0.031390 0.104489
v 0.481028 -0.031390 0.104489
v 0.468285 2.181370 0.104489
v 0.360893 2.168529 0.089628
v 0.341512 2.168529 0.089628
v 0.319173 2.181370 0.103875
v -0.403378 -0.031390 -0.128531
v -0.403378 2.181370 -0.128531
v 0.360893 -0.031390 -0.137797
v 0.341512 -0.031390 -0.137797
v 0.319173 -0.031390 -0.128531
v 0.491653 -0.031390 -0.128531
v 0.469964 2.181370 -0.128531
v 0.360893 2.168529 -0.138209
v 0.341512 2.168529 -0.138209
v 0.319173 2.181370 -0.128931
v -0.403378 -0.031390 -0.313060
v -0.403378 2.181370 -0.313060
v 0.360893 -0.031390 -0.318397
v 0.341512 -0.031390 -0.318397
v 0.319173 -0.031390 -0.313060
v 0.464145 -0.031390 -0.313060
v 0.443318 2.181370 -0.313060
v 0.360894 2.168529 -0.318634
v 0.341512 2.168529 -0.318634
v 0.319173 2.181370 -0.313290
v -0.403378 -0.031390 -0.481962
v -0.403378 2.181370 -0.481962
v 0.360893 -0.031390 -0.483702
v 0.341512 -0.031390 -0.483702
v 0.319173 -0.031390 -0.481962
v 0.403378 -0.031390 -0.481962
v 0.403378 2.181370 -0.481961
v 0.360894 2.168529 -0.483779
v 0.341512 2.168529 -0.483779
v 0.319173 2.181370 -0.482037
vn 0.000000 -1.000000 0.000000
vn 0.000000 -1.000000 0.000000
vn 0.000000 -1.000000 0.000000
vn 0.000000 -1.000000 0.000000
vn 0.000000 1.000000 0.000000
vn 0.000000 1.000000 0.000000
vn 0.000000 1.000000 0.000000
vn 0.000000 1.000000 0.000000
vn 0.986820 0.002264 0.161804
vn 0.986820 0.002264 0.161804
vn 0.986820 0.002264 0.161804
vn 0.986820 0.002264 0.161804
vn 0.000715 0.000234 1.000000
vn 0.000715 0.000234 1.000000
vn 0.000715 0.000234 1.000000
vn 0.000715 0.000234 1.000000
vn -1.000000 0.000000 0.000000
vn -1.000000 0.000000 0.000000
vn -1.000000 0.000000 0.000000
vn -1.000000 0.000000 0.000000
vn 0.000001 0.000000 -1.000000
vn 0.000001 0.000000 -1.000000
vn 0.000001 0.000000 -1.000000
vn 0.000001 0.000000 -1.000000
vn 0.000000 -1.000000 0.000000
vn 0.000000 -1.000000 0.000000
vn 0.000000 -1.000000 0.000000
vn 0.000000 -1.000000 0.000000
vn -0.219081 0.975588 -0.015215
vn -0.219081 0.975588 -0.015215
vn -0.219081 0.975588 -0.015215
vn -0.219081 0.975588 -0.015215
vn -0.500197 0.000210 0.865912
vn -0.500197 0.000210 0.865912
vn -0.500197 0.000210 0.865912
vn -0.500197 0.000210 0.865912
vn -0.000001 0.000000 -1.000000
vn -0.000001 0.000000 -1.000000
vn -0.000001 0.000000 -1.000000
vn -0.000001 0.000000 -1.000000
vn 0.000000 -1.000000 0.000000
vn 0.000000 -1.000000 0.000000
vn 0.000000 -1.000000 0.000000
vn 0.000000 -1.000000 0.000000
vn 0.000000 1.000000 0.000000
vn 0.000000 1.000000 0.000000
vn 0.000000 1.000000 0.000000
vn 0.000000 1.000000 0.000000
vn 0.000000 0.000485 1.000000
vn 0.000000 0.000485 1.000000
vn 0.000000 0.000485 1.000000
vn 0.000000 0.000485 1.000000
vn 0.000000 0.000000 -1.000000
vn 0.000000 0.000000 -1.000000
vn 0.000000 0.000000 -1.000000
vn 0.000000 0.000000 -1.000000
vn 0.000000 -1.000000 0.000000
vn 0.000000 -1.000000 0.000000
vn 0.000000 -1.000000 0.000000
vn 0.000000 -1.000000 0.000000
vn 0.498356 0.866973 0.000000
vn 0.498356 0.866973 0.000000
vn 0.498356 0.866973 0.000000
vn 0.498356 0.866972 0.000000
vn 0.732338 0.000325 0.680941
vn 0.732338 0.000325 0.680941
vn 0.732338 0.000325 0.680941
vn 0.732338 0.000325 0.680941
vn 0.000002 0.000000 -1.000000
vn 0.000002 0.000000 -1.000000
vn 0.000002 0.000000 -1.000000
vn 0.000002 0.000000 -1.000000
vn 0.000000 -1.000000 0.000000
vn 0.000000 -1.000000 0.000000
vn 0.000000 -1.000000 0.000000
vn 0.000000 -1.000000 0.000000
vn 0.000000 1.000000 -0.000001
vn 0.000000 1.000000 -0.000001
vn 0.000000 1.000000 -0.000001
vn 0.000000 1.000000 -0.000001
vn 0.989067 0.005117 0.147380
vn 0.989067 0.005117 0.147380
vn 0.989067 0.005117 0.147380
vn 0.989067 0.005117 0.147380
vn -1.000000 0.000000 0.000000
vn -1.000000 0.000000 0.000000
vn -1.000000 0.000000 0.000000
vn -1.000000 0.000000 0.000000
vn 0.000000 -1.000000 0.000000
vn 0.000000 -1.000000 0.000000
vn 0.000000 -1.000000 0.000000
vn 0.000000 -1.000000 0.000000
vn -0.142258 0.989775 -0.010371
vn -0.142258 0.989775 -0.010371
vn -0.142258 0.989775 -0.010371
vn -0.142258 0.989775 -0.010371
vn 0.000000 -1.000000 0.000000
vn 0.000000 -1.000000 0.000000
vn 0.000000 -1.000000 0.000000
vn 0.000000 -1.000000 0.000000
vn 0.000000 1.000000 -0.000001
vn 0.000000 1.000000 -0.000001
vn 0.000000 1.000000 -0.000001
vn 0.000000 1.000000 -0.000001
vn 0.000000 -1.000000 0.000000
vn 0.000000 -1.000000 0.000000
vn 0.000000 -1.000000 0.000000
vn 0.000000 -1.000000 0.000000
vn 0.498358 0.866971 0.000002
vn 0.498358 0.866971 0.000002
vn 0.498358 0.866971 0.000002
vn 0.498358 0.866971 0.000002
vn -1.000000 0.000000 0.000000
vn -1.000000 0.000000 0.000000
vn -1.000000 0.000000 0.000000
vn -1.000000 0.000000 0.000000
vn 0.000000 -1.000000 0.000000
vn 0.000000 -1.000000 0.000000
vn 0.000000 -1.000000 0.000000
vn 0.000000 -1.000000 0.000000
vn 0.000000 1.000000 0.000000
vn 0.000000 1.000000 0.000000
vn 0.000000 1.000000 0.000000
vn 0.000000 1.000000 0.000000
vn 0.999622 0.007777 0.026391
vn 0.999621 0.007777 0.026391
vn 0.999621 0.007777 0.026391
vn 0.999622 0.007777 0.026391
vn 0.000000 -1.000000 0.000000
vn 0.000000 -1.000000 0.000000
vn 0.000000 -1.000000 0.000000
vn 0.000000 -1.000000 0.000000
vn -0.117769 0.993041 -0.000429
vn -0.117769 0.993041 -0.000429
vn -0.117769 0.993041 -0.000429
vn -0.117769 0.993041 -0.000429
vn 0.000000 -1.000000 0.000000
vn 0.000000 -1.000000 0.000000
vn 0.000000 -1.000000 0.000000
vn 0.000000 -1.000000 0.000000
vn 0.000000 1.000000 0.000000
vn 0.000000 1.000000 0.000000
vn 0.000000 1.000000 0.000000
vn 0.000000 1.000000 0.000000
vn 0.000000 -1.000000 0.000000
vn 0.000000 -1.000000 0.000000
vn 0.000000 -1.000000 0.000000
vn 0.000000 -1.000000 0.000000
vn 0.498357 0.866972 0.000000
vn 0.498357 0.866972 0.000000
vn 0.498357 0.866972 0.000000
vn 0.498357 0.866972 0.000000
vn -1.000000 0.000000 0.000000
vn -1.000000 0.000000 0.000000
vn -1.000000 0.000000 0.000000
vn -1.000000 0.000000 0.000000
vn 0.000000 -1.000000 0.000000
vn 0.000000 -1.000000 0.000000
vn 0.000000 -1.000000 0.000000
vn 0.000000 -1.000000 0.000000
vn 0.000000 1.000000 0.000000
vn 0.000000 1.000000 0.000000
vn 0.000000 1.000000 0.000000
vn 0.000000 1.000000 0.000000
vn 0.989360 0.009505 -0.145174
vn 0.989360 0.009505 -0.145175
vn 0.989361 0.009505 -0.145175
vn 0.989360 0.009505 -0.145174
vn 0.000000 -1.000000 -0.000000
vn 0.000000 -1.000000 -0.000000
vn 0.000000 -1.000000 -0.000000
vn 0.000000 -1.000000 -0.000000
vn -0.133680 0.990977 0.009759
vn -0.133680 0.990977 0.009759
vn -0.133680 0.990977 0.009759
vn -0.133680 0.990977 0.009759
vn 0.000000 -1.000000 0.000000
vn 0.000000 -1.000000 0.000000
vn 0.000000 -1.000000 0.000000
vn 0.000000 -1.000000 0.000000
vn 0.000000 1.000000 0.000001
vn 0.000000 1.000000 0.000001
vn 0.000000 1.000000 0.000001
vn 0.000000 1.000000 0.000001
vn 0.000000 -1.000000 0.000000
vn 0.000000 -1.000000 0.000000
vn 0.000000 -1.000000 0.000000
vn 0.000000 -1.000000 0.000000
vn 0.498356 0.866972 0.000000
vn 0.498356 0.866972 0.000000
vn 0.498356 0.866972 0.000000
vn 0.498356 0.866972 0.000000
vn -1.000000 0.000000 0.000000
vn -1.000000 0.000000 0.000000
vn -1.000000 0.000000 0.000000
vn -1.000000 0.000000 0.000000
vn 0.000000 -1.000000 0.000000
vn 0.000000 -1.000000 0.000000
vn 0.000000 -1.000000 0.000000
vn 0.000000 -1.000000 0.000000
vn 0.000000 1.000000 0.000000
vn 0.000000 1.000000 0.000000
vn 0.000000 1.000000 0.000000
vn 0.000000 1.000000 0.000000
vn 0.958310 0.004510 -0.285695
vn 0.958310 0.004510 -0.285695
vn 0.958310 0.004510 -0.285695
vn 0.958310 0.004510 -0.285695
vn 0.000000 -1.000000 0.000000
vn 0.000000 -1.000000 0.000000
vn 0.000000 -1.000000 0.000000
vn 0.000000 -1.000000 0.000000
vn -0.202711 0.978939 0.024237
vn -0.202711 0.978939 0.024237
vn -0.202711 0.978939 0.024237
vn -0.202711 0.978939 0.024237
vn 0.000000 -1.000000 0.000000
vn 0.000000 -1.000000 0.000000
vn 0.000000 -1.000000 0.000000
vn 0.000000 -1.000000 0.000000
vn 0.000000 1.000000 0.000000
vn 0.000000 1.000000 0.000000
vn 0.000000 1.000000 0.000000
vn 0.000000 1.000000 0.000000
vn 0.000000 -1.000000 0.000000
vn 0.000000 -1.000000 0.000000
vn 0.000000 -1.000000 0.000000
vn 0.000000 -1.000000 0.000000
vn 0.498356 0.866972 0.000000
vn 0.498356 0.866972 0.000000
vn 0.498356 0.866972 0.000000
vn 0.498356 0.866972 0.000000
vn -1.000000 0.000000 0.000000
vn -1.000000 0.000000 0.000000
vn -1.000000 0.000000 0.000000
vn -1.000000 0.000000 0.000000
vn 0.000000 -1.000000 0.000000
vn 0.000000 -1.000000 0.000000
vn 0.000000 -1.000000 0.000000
vn 0.000000 -1.000000 0.000000
vn 0.000000 1.000000 0.000000
vn 0.000000 1.000000 0.000000
vn 0.000000 1.000000 0.000000
vn 0.000000 1.000000 0.000000
vn 1.000000 -0.000000 0.000000
vn 1.000000 -0.000000 0.000000
vn 1.000000 -0.000000 0.000000
vn 1.000000 -0.000000 0.000000
vn 0.000000 -1.000000 0.000000
vn 0.000000 -1.000000 0.000000
vn 0.000000 -1.000000 0.000000
vn 0.000000 -1.000000 0.000000
vn -0.289327 0.957230 0.000000
vn -0.289327 0.957230 0.000000
vn -0.289327 0.957230 0.000000
vn -0.289327 0.957230 0.000000
vn 0.000000 -1.000000 0.000000
vn 0.000000 -1.000000 0.000000
vn 0.000000 -1.000000 0.000000
vn 0.000000 -1.000000 0.000000
vn 0.000000 1.000000 0.000000
vn 0.000000 1.000000 0.000000
vn 0.000000 1.000000 0.000000
vn 0.000000 1.000000 0.000000
vn 0.000000 -1.000000 0.000000
vn 0.000000 -1.000000 0.000000
vn 0.000000 -1.000000 0.000000
vn 0.000000 -1.000000 0.000000
vn 0.498356 0.866972 0.000000
vn 0.498356 0.866972 0.000000
vn 0.498356 0.866972 0.000000
vn 0.498356 0.866972 0.000000
s off
g polySurface1 Mesh
usemtl phong1SG
f 29//1 18//2 3//3 22//4
f 30//5 24//6 7//7 20//8
f 21//9 23//10 6//11 2//12
f 18//13 20//14 7//15 3//16
f 61//17 62//18 8//19 4//20
f 19//21 17//22 4//23 8//24
f 21//25 2//26 10//27 25//28
f 23//29 26//30 12//31 6//32
f 2//33 6//34 12//35 10//36
f 5//37 1//38 9//39 11//40
f 25//41 10//42 14//43 27//44
f 26//45 28//46 16//47 12//48
f 10//49 12//50 16//51 14//52
f 11//53 9//54 13//55 15//56
f 27//57 14//58 18//59 29//60
f 28//61 30//62 20//63 16//64
f 14//65 16//66 20//67 18//68
f 15//69 13//70 17//71 19//72
f 35//73 29//74 22//75 31//76
f 40//77 32//78 24//79 30//80
f 36//81 37//82 23//83 21//84
f 3//85 7//86 24//87 22//88
f 36//89 21//90 25//91 33//92
f 37//93 38//94 26//95 23//96
f 33//97 25//98 27//99 34//100
f 38//101 39//102 28//103 26//104
f 34//105 27//106 29//107 35//108
f 39//109 40//110 30//111 28//112
f 22//113 24//114 32//115 31//116
f 45//117 35//118 31//119 41//120
f 50//121 42//122 32//123 40//124
f 46//125 47//126 37//127 36//128
f 46//129 36//130 33//131 43//132
f 47//133 48//134 38//135 37//136
f 43//137 33//138 34//139 44//140
f 48//141 49//142 39//143 38//144
f 44//145 34//146 35//147 45//148
f 49//149 50//150 40//151 39//152
f 31//153 32//154 42//155 41//156
f 55//157 45//158 41//159 51//160
f 60//161 52//162 42//163 50//164
f 56//165 57//166 47//167 46//168
f 56//169 46//170 43//171 53//172
f 57//173 58//174 48//175 47//176
f 53//177 43//178 44//179 54//180
f 58//181 59//182 49//183 48//184
f 54//185 44//186 45//187 55//188
f 59//189 60//190 50//191 49//192
f 41//193 42//194 52//195 51//196
f 65//197 55//198 51//199 61//200
f 70//201 62//202 52//203 60//204
f 66//205 67//206 57//207 56//208
f 66//209 56//210 53//211 63//212
f 67//213 68//214 58//215 57//216
f 63//217 53//218 54//219 64//220
f 68//221 69//222 59//223 58//224
f 64//225 54//226 55//227 65//228
f 69//229 70//230 60//231 59//232
f 51//233 52//234 62//235 61//236
f 17//237 65//238 61//239 4//240
f 19//241 8//242 62//243 70//244
f 1//245 5//246 67//247 66//248
f 1//249 66//250 63//251 9//252
f 5//253 11//254 68//255 67//256
f 9//257 63//258 64//259 13//260
f 11//261 15//262 69//263 68//264
f 13//265 64//266 65//267 17//268
f 15//269 19//270 70//271 69//272
g default
v 0.425232 0.746686 0.483425
v 0.425107 0.747234 0.398398
v 0.347024 0.733841 0.398427
v 0.347149 0.733292 0.483454
v 0.387237 1.762446 0.490035
v 0.387112 1.762995 0.405008
v 0.285883 1.745631 0.405045
v 0.286008 1.745083 0.490072
v 0.463442 1.604158 0.488901
v 0.463316 1.604707 0.403874
v 0.419712 1.597228 0.403890
v 0.419837 1.596679 0.488917
v 0.528143 1.443908 0.402742
v 0.479558 1.435575 0.402759
v 0.479683 1.435026 0.487786
v 0.528268 1.443360 0.487768
v 0.566657 1.238174 0.401357
v 0.518457 1.229906 0.401375
v 0.518582 1.229358 0.486402
v 0.566782 1.237625 0.486384
v 0.551371 1.053314 0.400187
v 0.497287 1.038396 0.400386
v 0.496472 1.043327 0.485234
v 0.551496 1.052765 0.485214
v 0.514541 0.882916 0.399142
v 0.457711 0.919541 0.392688
v 0.457836 0.918992 0.477715
v 0.514666 0.882367 0.484169
vn -0.834940 0.550321 0.004778
vn -0.834939 0.550321 0.004778
vn -0.834939 0.550321 0.004778
vn -0.834939 0.550321 0.004778
vn -0.040527 0.040752 0.998347
vn -0.040527 0.040752 0.998347
vn -0.040527 0.040752 0.998347
vn -0.040527 0.040752 0.998347
vn 0.858914 -0.512099 -0.004570
vn 0.858914 -0.512099 -0.004570
vn 0.858914 -0.512099 -0.004570
vn 0.858914 -0.512099 -0.004570
vn 0.040527 -0.040753 -0.998347
vn 0.040527 -0.040753 -0.998347
vn 0.040527 -0.040753 -0.998347
vn 0.040527 -0.040753 -0.998347
vn -0.169054 0.985585 0.006607
vn -0.169054 0.985585 0.006607
vn -0.169054 0.985585 0.006607
vn -0.169054 0.985585 0.006607
vn 0.169052 -0.985585 -0.006605
vn 0.169052 -0.985585 -0.006605
vn 0.169052 -0.985585 -0.006605
vn 0.169052 -0.985585 -0.006605
vn -0.901023 -0.433769 -0.001470
vn -0.901023 -0.433769 -0.001470
vn -0.901023 -0.433769 -0.001470
vn -0.901023 -0.433769 -0.001470
vn 0.001473 -0.006454 0.999978
vn 0.001473 -0.006454 0.999978
vn 0.001473 -0.006454 0.999978
vn 0.001473 -0.006454 0.999978
vn 0.742641 0.669682 0.003228
vn 0.742641 0.669682 0.003228
vn 0.742641 0.669682 0.003228
vn 0.742641 0.669682 0.003228
vn -0.001473 0.006455 -0.999978
vn -0.001473 0.006455 -0.999978
vn -0.001473 0.006455 -0.999978
vn -0.001473 0.006455 -0.999978
vn -0.927467 -0.373904 -0.001043
vn -0.927467 -0.373904 -0.001043
vn -0.927467 -0.373904 -0.001043
vn -0.927467 -0.373904 -0.001043
vn 0.001464 -0.006452 0.999978
vn 0.001464 -0.006452 0.999978
vn 0.001464 -0.006452 0.999978
vn 0.001464 -0.006452 0.999978
vn 0.937799 0.347179 0.000864
vn 0.937799 0.347179 0.000864
vn 0.937799 0.347179 0.000864
vn 0.937799 0.347179 0.000864
vn -0.001476 0.006451 -0.999978
vn -0.001476 0.006451 -0.999978
vn -0.001476 0.006451 -0.999978
vn -0.001476 0.006451 -0.999978
vn -0.982925 -0.184008 0.000258
vn -0.982925 -0.184008 0.000258
vn -0.982925 -0.184008 0.000258
vn -0.982925 -0.184008 0.000258
vn 0.001469 -0.006454 0.999978
vn 0.001469 -0.006454 0.999978
vn 0.001469 -0.006454 0.999978
vn 0.001469 -0.006454 0.999978
vn 0.982580 0.185841 -0.000246
vn 0.982580 0.185841 -0.000246
vn 0.982580 0.185841 -0.000246
vn 0.982580 0.185841 -0.000246
vn -0.001478 0.006450 -0.999978
vn -0.001478 0.006450 -0.999978
vn -0.001478 0.006450 -0.999978
vn -0.001478 0.006450 -0.999978
vn -0.996598 0.082396 0.001997
vn -0.996598 0.082396 0.001997
vn -0.996598 0.082396 0.001997
vn -0.996598 0.082396 0.001997
vn 0.003500 -0.006075 0.999976
vn 0.003500 -0.006075 0.999976
vn 0.003500 -0.006075 0.999975
vn 0.003500 -0.006075 0.999976
vn 0.993465 -0.113927 0.006975
vn 0.993465 -0.113927 0.006975
vn 0.993465 -0.113927 0.006975
vn 0.993465 -0.113927 0.006975
vn -0.001475 0.006452 -0.999978
vn -0.001475 0.006452 -0.999978
vn -0.001475 0.006452 -0.999978
vn -0.001475 0.006452 -0.999978
vn -0.977429 0.211246 0.002801
vn -0.977429 0.211246 0.002801
vn -0.977429 0.211246 0.002801
vn -0.977429 0.211246 0.002801
vn -0.059138 -0.014549 0.998144
vn -0.059138 -0.014549 0.998144
vn -0.059138 -0.014549 0.998144
vn -0.059138 -0.014549 0.998144
vn 0.951697 -0.306811 0.011780
vn 0.951697 -0.306811 0.011780
vn 0.951698 -0.306811 0.011780
vn 0.951697 -0.306811 0.011780
vn 0.060683 0.013463 -0.998066
vn 0.060683 0.013463 -0.998066
vn 0.060683 0.013463 -0.998066
vn 0.060683 0.013463 -0.998066
s off
g Mesh polySurface2
usemtl phong2SG
f 98//273 95//274 72//275 71//276
f 95//277 96//278 73//279 72//280
f 96//281 97//282 74//283 73//284
f 97//285 98//286 71//287 74//288
f 71//289 72//290 73//291 74//292
f 78//293 77//294 76//295 75//296
f 75//297 76//298 80//299 79//300
f 76//301 77//302 81//303 80//304
f 77//305 78//306 82//307 81//308
f 78//309 75//310 79//311 82//312
f 79//313 80//314 83//315 86//316
f 80//317 81//318 84//319 83//320
f 81//321 82//322 85//323 84//324
f 82//325 79//326 86//327 85//328
f 86//329 83//330 87//331 90//332
f 83//333 84//334 88//335 87//336
f 84//337 85//338 89//339 88//340
f 85//341 86//342 90//343 89//344
f 90//345 87//346 91//347 94//348
f 87//349 88//350 92//351 91//352
f 88//353 89//354 93//355 92//356
f 89//357 90//358 94//359 93//360
f 94//361 91//362 95//363 98//364
f 91//365 92//366 96//367 95//368
f 92//369 93//370 97//371 96//372
f 93//373 94//374 98//375 97//376
