# This file uses centimeters as units for non-parametric coordinates.

mtllib floppy.mtl
g default
v 0.156347 -0.127136 0.021006
v 0.156347 -0.127136 -0.024343
v 0.156347 0.246456 0.021006
v 0.156347 0.246456 -0.024343
v -0.156347 -0.127136 0.021006
v -0.156347 -0.127136 -0.024343
v -0.118247 0.246456 0.021006
v -0.156347 0.208356 0.021006
v -0.156347 0.208356 -0.024343
v -0.118247 0.246456 -0.024343
vt 0.266714 0.337399
vt 0.294575 0.338161
vt 0.291046 0.746221
vt 0.263184 0.745460
vt 0.264595 0.214997
vt 0.628293 0.170358
vt 0.634019 0.899046
vt 0.602109 0.949121
vt 0.253077 0.952498
vt 0.262967 0.770516
vt 0.290829 0.771278
vt 0.293424 0.471349
vt 0.265562 0.470587
vt 0.265922 0.428971
vt 0.293783 0.429733
vt 0.290829 0.771278
vt 0.262967 0.770516
vt 0.263544 0.703844
vt 0.291406 0.704606
vt 0.294575 0.338161
vt 0.266714 0.337399
vt 0.263184 0.745460
vt 0.291046 0.746221
vn 1.000000 0.000000 0.000000
vn 1.000000 0.000000 0.000000
vn 1.000000 0.000000 0.000000
vn 1.000000 0.000000 0.000000
vn 0.000000 0.000000 -1.000000
vn 0.000000 0.000000 -1.000000
vn 0.000000 0.000000 -1.000000
vn 0.000000 0.000000 -1.000000
vn 0.000000 0.000000 -1.000000
vn -0.000000 1.000000 -0.000000
vn -0.000000 1.000000 -0.000000
vn -0.000000 1.000000 -0.000000
vn -0.000000 1.000000 -0.000000
vn 0.000000 -1.000000 0.000000
vn 0.000000 -1.000000 0.000000
vn 0.000000 -1.000000 0.000000
vn 0.000000 -1.000000 0.000000
vn -1.000000 0.000000 0.000000
vn -1.000000 0.000000 0.000000
vn -1.000000 0.000000 0.000000
vn -1.000000 0.000000 0.000000
vn -0.707107 0.707107 -0.000000
vn -0.707107 0.707107 -0.000000
vn -0.707107 0.707107 -0.000000
vn -0.707107 0.707107 -0.000000
s off
g floppy_Disco
usemtl Disco
f 1/1/1 2/2/2 4/3/3 3/4/4
f 2/5/5 6/6/6 9/7/7 10/8/8 4/9/9
f 3/10/10 4/11/11 10/12/12 7/13/13
f 5/14/14 6/15/15 2/16/16 1/17/17
f 8/18/18 9/19/19 6/20/20 5/21/21
f 7/22/22 10/23/23 9/19/24 8/18/25
g default
v -0.156347 -0.127136 0.021006
v 0.156347 -0.127136 0.021006
v 0.156347 0.246456 0.021006
v -0.118247 0.246456 0.021006
v -0.156347 0.208356 0.021006
vt 0.380999 0.319896
vt 0.636003 0.324958
vt 0.654532 0.838562
vt 0.389789 0.834806
vt 0.360925 0.791567
vn 0.000000 0.000000 1.000000
vn 0.000000 0.000000 1.000000
vn 0.000000 0.000000 1.000000
vn 0.000000 0.000000 1.000000
vn 0.000000 0.000000 1.000000
s off
g floppy_Disco_2
usemtl Disco_2
f 11/24/26 12/25/27 13/26/28 14/27/29 15/28/30
